# AST/ASF file generated using VICON BodyLanguage
# -----------------------------------------------
:version 1.10
:name VICON
:units
  mass 1.0
  length 0.45
  angle deg
:documentation
   .ast/.asf automatically generated from VICON data using
   VICON BodyBuilder and BodyLanguage model FoxedUp or BRILLIANT.MOD
:root
   order TX TY TZ RX RY RZ
   axis XYZ
   position 0 0 0  
   orientation 0 0 0 
:bonedata
  begin
     id 1 
     name lhipjoint
     direction 0.722297 -0.617336 0.311742 
     length 2.6635 
     axis 0 0 0  XYZ
  end
  begin
     id 2 
     name lfemur
     direction 0.34202 -0.939693 0  
     length 7.39349  
     axis 0 0 20  XYZ
    dof rx ry rz
    limits (-160.0 20.0)
           (-70.0 70.0)
           (-60.0 70.0)
  end
  begin
     id 3 
     name ltibia
     direction 0.34202 -0.939693 0   
     length 7.36294   
     axis 0 0 20   XYZ
    dof rx
    limits (-10.0 170.0)
  end
  begin
     id 4 
     name lfoot
     direction 0.104879 -0.288152 0.951824   
     length 2.16981   
     axis -90 7.62852e-016 20   XYZ
    dof rx rz
    limits (-45.0 90.0)
           (-70.0 20.0)
  end
  begin
     id 5 
     name ltoes
     direction 1.53586e-011 -4.21895e-011 1   
     length 1.08218   
     axis -90 7.62852e-016 20   XYZ
    dof rx
    limits (-90.0 20.0)
  end
  begin
     id 6 
     name rhipjoint
     direction -0.75102 -0.589393 0.297631   
     length 2.78977  
     axis 0 0 0  XYZ 
  end
  begin
     id 7 
     name rfemur
     direction -0.34202 -0.939693 0   
     length 7.46076   
     axis 0 0 -20   XYZ
    dof rx ry rz
    limits (-160.0 20.0)
           (-70.0 70.0)
           (-70.0 60.0)
  end
  begin
     id 8 
     name rtibia
     direction -0.34202 -0.939693 0   
     length 7.31726   
     axis 0 0 -20   XYZ
    dof rx
    limits (-10.0 170.0)
 end
 begin
     id 9 
     name rfoot
     direction -0.107991 -0.296704 0.948844   
     length 2.09388  
     axis -90 -7.62852e-016 -20   XYZ
    dof rx rz
    limits (-45.0 90.0)
           (-20.0 70.0)
  end
  begin
     id 10 
     name rtoes
     direction -1.53559e-011 -4.21911e-011 1   
     length 1.04433   
     axis -90 -7.62852e-016 -20   XYZ
    dof rx
    limits (-90.0 20.0)
  end
  begin
     id 11 
     name lowerback
     direction 0.0165164 0.98272 0.184358   
     length 1.71896   
     axis 0 0 0   XYZ
    dof rx ry rz
    limits (-20.0 45.0)
           (-30.0 30.0)
           (-30.0 30.0)
  end
  begin
     id 12 
     name upperback
     direction -0.00887249 0.992297 0.123566   
     length 1.71504   
     axis 0 0 0   XYZ
    dof rx ry rz
    limits (-20.0 45.0)
           (-30.0 30.0)
           (-30.0 30.0)
  end
  begin
     id 13 
     name thorax
     direction -0.0157026 0.998908 0.0440032   
     length 1.77022   
     axis 0 0 0   XYZ
    dof rx ry rz
    limits (-20.0 45.0)
           (-30.0 30.0)
           (-30.0 30.0)
  end
  begin
     id 14 
     name lowerneck
     direction -0.0238856 0.998137 0.0561411   
     length 1.89341   
     axis 0 0 0   XYZ
    dof rx ry rz
    limits (-20.0 45.0)
           (-30.0 30.0)
           (-30.0 30.0)
  end
  begin
     id 15 
     name upperneck
     direction 0.0276574 0.952253 -0.304056   
     length 1.86999   
     axis 0 0 0   XYZ
    dof rx ry rz
    limits (-20.0 45.0)
           (-30.0 30.0)
           (-30.0 30.0)
  end
  begin
     id 16
     name head
     direction 0.00800083 0.994258 -0.106712  
     length 1.91492  
     axis 0 0 0   XYZ
    dof rx ry rz
    limits (-20.0 45.0)
           (-30.0 30.0)
           (-30.0 30.0)
  end
  begin
     id 17 
     name lclavicle
     direction 0.97203 0.225407 0.06595  
     length 3.34889  
     axis 0 0 0   XYZ
    dof ry rz
    limits (-20.0 10.0)
           (0.0 20.0)
  end
  begin
     id 18 
     name lhumerus
     direction 1 -4.48973e-011 2.20267e-027   
     length 4.85645   
     axis 180 -30 -90   XYZ
    dof rx ry rz
    limits (-60.0 90.0)
           (-90.0 90.0)
           (-90.0 90.0)
  end
  begin
     id 19
     name lradius
     direction 1 -4.4897e-011 4.60472e-027   
     length 2.79874   
     axis 180 -30 -90   XYZ
    dof rx
    limits (-10.0 170.0)
  end
  begin
     id 20
     name lwrist
     direction 1 -4.48952e-011 1.14928e-026   
     length 1.39937   
     axis -6.29373e-015 90 90   XYZ
    dof ry
    limits (-180.0 0.0)
 end
  begin
     id 21 
     name lhand
     direction 1 -4.48967e-011 2.29886e-026   
     length 0.573398   
     axis -1.46689e-014 90 90   XYZ
    dof rx rz
    limits (-90.0 90.0)
           (-45.0 45.0)
  end
  begin
     id 22 
     name lfingers
     direction 1 -4.48955e-011 4.59726e-026   
     length 0.462289   
     axis -2.93383e-014 90 90   XYZ
    dof rx
    limits (0.0 90.0)
  end
  begin
     id 23
     name lthumb
     direction 0.707107 -6.34866e-011 0.707107   
     length 0.663757   
     axis -90 45 5.69224e-014   XYZ
    dof rx rz
    limits (-45.0 45.0)
           (-45.0 45.0)
  end
  begin
     id 24 
     name rclavicle
     direction -0.981571 0.157346 0.108443   
     length 3.35257  
     axis 0 0 0   XYZ 
    dof ry rz
    limits (-10.0 20.0)
           (-20.0 0.0)
  end
  begin
     id 25 
     name rhumerus
     direction -1 -4.48967e-011 8.58308e-029  
     length 4.67018   
     axis 180 30 90   XYZ
    dof rx ry rz
    limits (-90.0 60.0)
           (-90.0 90.0)
           (-90.0 90.0)
  end
  begin
     id 26 
     name rradius
     direction -1 -4.48958e-011 4.52548e-027   
     length 2.65534   
     axis 180 30 90   XYZ
    dof rx
    limits (-10.0 170.0)
  end
  begin
     id 27 
     name rwrist
     direction -1 -4.48977e-011 1.14952e-026   
     length 1.32767   
     axis -6.29373e-015 -90 -90   XYZ
    dof ry
    limits (-180.0 0.0)
  end
  begin
     id 28
     name rhand
     direction -1 -4.48924e-011 2.29804e-026   
     length 0.594069   
     axis -1.46689e-014 -90 -90   XYZ
    dof rx rz
    limits (-90.0 90.0)
           (-45.0 45.0)
  end
  begin
     id 29
     name rfingers
     direction -1 -4.48998e-011 4.59888e-026   
     length 0.478954   
     axis -2.93383e-014 -90 -90   XYZ
    dof rx
    limits (0.0 90.0)
  end
  begin
     id 30
     name rthumb
     direction -0.707107 -6.34933e-011 0.707107   
     length 0.687685   
     axis -90 -45 -5.69224e-014   XYZ
    dof rx rz
    limits (-45.0 45.0)
           (-45.0 45.0)
  end
:hierarchy
  begin
    root lhipjoint rhipjoint lowerback
    lhipjoint lfemur
    lfemur ltibia
    ltibia lfoot
    lfoot ltoes
    rhipjoint rfemur
    rfemur rtibia
    rtibia rfoot
    rfoot rtoes
    lowerback upperback
    upperback thorax
    thorax lowerneck lclavicle rclavicle
    lowerneck upperneck
    upperneck head
    lclavicle lhumerus
    lhumerus lradius
    lradius lwrist
    lwrist lhand lthumb
    lhand lfingers
    rclavicle rhumerus
    rhumerus rradius
    rradius rwrist
    rwrist rhand rthumb
    rhand rfingers
  end

#!OML:ASF E:\pregnant2\Project 1\Capture day 1\Session 1\pregnant2.ASF
:FULLY-SPECIFIED
:DEGREES
596
root 9.32054 10.7277 18.3517 23.6988 -1.86908 -1.47535
lowerback -41.5089 1.33727 3.16465
upperback -12.5819 0.258608 0.834031
thorax 5.77667 0.0653951 -0.644065
lowerneck -8.33102 -0.00238053 -2.35145
upperneck 50.6483 2.67891 -3.87699
head 22.8692 0.0377081 -1.19089
rclavicle -3.67752e-015 1.03368e-014
rhumerus -37.0791 31.0807 -80.3019
rradius 74.3545
rwrist 24.5247
rhand 16.6341 -12.9097
rfingers 7.12502
rthumb 41.3875 -37.7017
lclavicle -3.67752e-015 1.03368e-014
lhumerus -39.5848 -9.76785 80.1181
lradius 71.8524
lwrist -31.8102
lhand 17.5367 23.9652
lfingers 7.12502
lthumb 42.2338 48.4764
rfemur -108.206 5.39697 24.9625
rtibia 82.9522
rfoot 3.83017 -8.7007
rtoes 9.67024
lfemur -117.275 -2.91357 -25.9255
ltibia 90.5981
lfoot 11.3389 -4.21825
ltoes -7.88009
597
root 9.32383 10.7198 18.3487 23.5506 -1.92804 -1.44353
lowerback -41.276 1.37792 3.19591
upperback -12.5821 0.310171 0.785009
thorax 5.70995 0.0864287 -0.694131
lowerneck -8.31526 0.000666827 -2.33769
upperneck 50.6357 2.66968 -3.85911
head 22.8489 0.039369 -1.18452
rclavicle -4.27387e-015 -1.59028e-015
rhumerus -37.0769 31.0417 -80.3194
rradius 74.3494
rwrist 24.5556
rhand 16.5964 -12.893
rfingers 7.12502
rthumb 41.3521 -37.6964
lclavicle -4.27387e-015 -1.59028e-015
lhumerus -39.5822 -9.81285 80.105
lradius 71.8744
lwrist -31.805
lhand 17.508 23.9644
lfingers 7.12502
lthumb 42.2069 48.4848
rfemur -108.122 5.3788 25.0005
rtibia 83.0253
rfoot 3.83101 -8.63112
rtoes 9.61681
lfemur -116.86 -2.8337 -25.9643
ltibia 90.6741
lfoot 10.9057 -4.12911
ltoes -7.89652
598
root 9.32672 10.7117 18.3462 23.4106 -1.99264 -1.40628
lowerback -41.0633 1.41522 3.21498
upperback -12.5797 0.361339 0.738105
thorax 5.65175 0.107763 -0.735816
lowerneck -8.30564 0.00107149 -2.32577
upperneck 50.6169 2.65727 -3.84304
head 22.8248 0.0392111 -1.17918
rclavicle 5.36719e-015 -1.51076e-014
rhumerus -37.0788 31.0061 -80.3366
rradius 74.3477
rwrist 24.5838
rhand 16.5938 -12.8981
rfingers 7.12502
rthumb 41.3497 -37.7024
lclavicle 5.36719e-015 -1.51076e-014
lhumerus -39.584 -9.85846 80.097
lradius 71.8974
lwrist -31.8115
lhand 17.4749 23.9683
lfingers 7.12502
lthumb 42.1759 48.4991
rfemur -108.049 5.36474 25.0327
rtibia 83.0986
rfoot 3.83622 -8.5585
rtoes 9.53072
lfemur -116.46 -2.75911 -26.0072
ltibia 90.7475
lfoot 10.4374 -4.00236
ltoes -7.97607
599
root 9.3291 10.7036 18.3446 23.2894 -2.05792 -1.36598
lowerback -40.8912 1.44833 3.22231
upperback -12.5743 0.409857 0.694439
thorax 5.60858 0.128452 -0.768804
lowerneck -8.2983 -0.000314532 -2.31267
upperneck 50.5938 2.64401 -3.83244
head 22.7979 0.038332 -1.17713
rclavicle -4.67144e-015 3.18055e-015
rhumerus -37.086 30.9734 -80.354
rradius 74.347
rwrist 24.6161
rhand 16.6165 -12.9149
rfingers 7.12502
rthumb 41.371 -37.7122
lclavicle -4.67144e-015 3.18055e-015
lhumerus -39.5903 -9.90582 80.0954
lradius 71.9198
lwrist -31.8305
lhand 17.4416 23.9753
lfingers 7.12502
lthumb 42.1447 48.5167
rfemur -107.995 5.35361 25.0582
rtibia 83.1718
rfoot 3.8405 -8.48925
rtoes 9.45072
lfemur -116.087 -2.69317 -26.0494
ltibia 90.8196
lfoot 9.92211 -3.84498
ltoes -8.11315
600
root 9.3311 10.6955 18.3439 23.1884 -2.12718 -1.32283
lowerback -40.7607 1.48007 3.22062
upperback -12.567 0.458123 0.65252
thorax 5.57978 0.14947 -0.795085
lowerneck -8.29282 -0.00187958 -2.29697
upperneck 50.5701 2.63053 -3.82352
head 22.7713 0.0377078 -1.17655
rclavicle 3.97569e-016 3.06128e-014
rhumerus -37.0973 30.9432 -80.3742
rradius 74.3438
rwrist 24.6573
rhand 16.6476 -12.933
rfingers 7.12502
rthumb 41.4002 -37.7208
lclavicle 3.97569e-016 3.06128e-014
lhumerus -39.6001 -9.95741 80.0987
lradius 71.9396
lwrist -31.8568
lhand 17.4079 23.9837
lfingers 7.12502
lthumb 42.1131 48.5358
rfemur -107.961 5.34838 25.0743
rtibia 83.2446
rfoot 3.8438 -8.42361
rtoes 9.38654
lfemur -115.744 -2.6333 -26.0915
ltibia 90.893
lfoot 9.3511 -3.6725
ltoes -8.28185
601
root 9.33267 10.6879 18.3439 23.1125 -2.19515 -1.28012
lowerback -40.6796 1.50996 3.21273
upperback -12.5587 0.504142 0.612644
thorax 5.56664 0.169823 -0.816445
lowerneck -8.28724 -0.00390981 -2.27693
upperneck 50.5495 2.61724 -3.81897
head 22.7481 0.0374778 -1.17942
rclavicle -4.07509e-015 -5.96354e-016
rhumerus -37.1162 30.9156 -80.399
rradius 74.3374
rwrist 24.7097
rhand 16.6906 -12.9566
rfingers 7.12502
rthumb 41.4406 -37.7313
lclavicle -4.07509e-015 -5.96354e-016
lhumerus -39.6156 -10.0139 80.1075
lradius 71.9576
lwrist -31.8827
lhand 17.3717 23.9939
lfingers 7.12502
lthumb 42.0792 48.5573
rfemur -107.948 5.34606 25.0858
rtibia 83.3135
rfoot 3.84502 -8.36325
rtoes 9.35575
lfemur -115.432 -2.58122 -26.1331
ltibia 90.9593
lfoot 8.76827 -3.50076
ltoes -8.41087
602
root 9.33407 10.6812 18.3447 23.0665 -2.26189 -1.23861
lowerback -40.6551 1.54132 3.20466
upperback -12.5484 0.549525 0.572415
thorax 5.57257 0.190069 -0.837769
lowerneck -8.27549 -0.00262187 -2.24974
upperneck 50.529 2.60789 -3.81579
head 22.7227 0.0401395 -1.18362
rclavicle 7.05686e-015 -5.76476e-015
rhumerus -37.1318 30.886 -80.4278
rradius 74.3213
rwrist 24.7747
rhand 16.6743 -12.9437
rfingers 7.12502
rthumb 41.4252 -37.7234
lclavicle 7.05686e-015 -5.76476e-015
lhumerus -39.6292 -10.0756 80.1166
lradius 71.9704
lwrist -31.906
lhand 17.3399 24.0004
lfingers 7.12502
lthumb 42.0495 48.5739
rfemur -107.96 5.34647 25.0928
rtibia 83.3767
rfoot 3.84281 -8.30738
rtoes 9.35681
lfemur -115.16 -2.53727 -26.1734
ltibia 91.0167
lfoot 8.17295 -3.34344
ltoes -8.48881
603
root 9.33562 10.6758 18.3464 23.0508 -2.32015 -1.20289
lowerback -40.696 1.57707 3.20721
upperback -12.5325 0.593501 0.529887
thorax 5.60433 0.209643 -0.8668
lowerneck -8.26713 -0.000913727 -2.2156
upperneck 50.514 2.59791 -3.81332
head 22.7043 0.0438027 -1.19002
rclavicle -4.17448e-015 1.19271e-015
rhumerus -37.1496 30.8537 -80.4603
rradius 74.2992
rwrist 24.8518
rhand 16.6561 -12.9244
rfingers 7.12502
rthumb 41.4082 -37.7096
lclavicle -4.17448e-015 1.19271e-015
lhumerus -39.6395 -10.1465 80.1267
lradius 71.9781
lwrist -31.9227
lhand 17.3037 24.004
lfingers 7.12502
lthumb 42.0155 48.5889
rfemur -107.993 5.34311 25.1049
rtibia 83.4321
rfoot 3.83659 -8.25298
rtoes 9.38389
lfemur -114.919 -2.50438 -26.2058
ltibia 91.059
lfoot 7.56934 -3.21461
ltoes -8.56929
604
root 9.33745 10.6714 18.349 23.0605 -2.37217 -1.17359
lowerback -40.7907 1.61883 3.22367
upperback -12.5111 0.6374 0.483661
thorax 5.65805 0.228987 -0.906276
lowerneck -8.26546 0.00112514 -2.17597
upperneck 50.5035 2.58562 -3.80755
head 22.6927 0.0479621 -1.19642
rclavicle 2.98177e-016 -8.34896e-015
rhumerus -37.1676 30.8187 -80.4971
rradius 74.2716
rwrist 24.9373
rhand 16.6304 -12.9
rfingers 7.12502
rthumb 41.384 -37.6931
lclavicle 2.98177e-016 -8.34896e-015
lhumerus -39.6448 -10.2251 80.1354
lradius 71.9825
lwrist -31.9358
lhand 17.2588 24.0034
lfingers 7.12502
lthumb 41.9734 48.6024
rfemur -108.042 5.33693 25.1249
rtibia 83.4806
rfoot 3.82834 -8.19506
rtoes 9.40773
lfemur -114.702 -2.47959 -26.2314
ltibia 91.0864
lfoot 6.9599 -3.12137
ltoes -8.70171
605
root 9.33972 10.6679 18.3522 23.0855 -2.41968 -1.15222
lowerback -40.9159 1.66817 3.25616
upperback -12.4875 0.683252 0.434395
thorax 5.72337 0.248925 -0.956022
lowerneck -8.27135 0.00254024 -2.13216
upperneck 50.498 2.56903 -3.79677
head 22.6886 0.0518116 -1.202
rclavicle -5.46658e-015 -2.18663e-015
rhumerus -37.1885 30.7811 -80.5357
rradius 74.2404
rwrist 25.0291
rhand 16.6007 -12.8723
rfingers 7.12502
rthumb 41.3562 -37.6744
lclavicle -5.46658e-015 -2.18663e-015
lhumerus -39.6472 -10.3135 80.1451
lradius 71.9854
lwrist -31.9505
lhand 17.2097 24.0002
lfingers 7.12502
lthumb 41.9274 48.6145
rfemur -108.097 5.32785 25.1565
rtibia 83.5223
rfoot 3.81854 -8.13231
rtoes 9.42858
lfemur -114.502 -2.46098 -26.2519
ltibia 91.099
lfoot 6.35607 -3.06903
ltoes -8.92396
606
root 9.34235 10.6646 18.3556 23.1131 -2.47112 -1.13654
lowerback -41.0443 1.72433 3.29866
upperback -12.4644 0.733455 0.383103
thorax 5.78927 0.270617 -1.01125
lowerneck -8.28661 0.00386058 -2.08391
upperneck 50.4962 2.54833 -3.77971
head 22.6914 0.055655 -1.20603
rclavicle 6.06293e-015 1.07344e-014
rhumerus -37.2117 30.7427 -80.5754
rradius 74.2062
rwrist 25.1254
rhand 16.5642 -12.8428
rfingers 7.12502
rthumb 41.3219 -37.656
lclavicle 6.06293e-015 1.07344e-014
lhumerus -39.6472 -10.412 80.1557
lradius 71.9873
lwrist -31.9723
lhand 17.1539 23.9918
lfingers 7.12502
lthumb 41.8751 48.6235
rfemur -108.151 5.3212 25.1976
rtibia 83.5598
rfoot 3.81131 -8.06199
rtoes 9.42915
lfemur -114.307 -2.44054 -26.2743
ltibia 91.1
lfoot 5.782 -3.05792
ltoes -9.19842
607
root 9.34517 10.6612 18.3588 23.1327 -2.53026 -1.12364
lowerback -41.1514 1.78444 3.34391
upperback -12.4459 0.788165 0.332477
thorax 5.84382 0.294233 -1.0656
lowerneck -8.30902 0.0042343 -2.03469
upperneck 50.4959 2.52361 -3.75775
head 22.698 0.0587023 -1.20842
rclavicle -1.43125e-014 5.96354e-016
rhumerus -37.2412 30.7054 -80.6143
rradius 74.1709
rwrist 25.228
rhand 16.5141 -12.8114
rfingers 7.12502
rthumb 41.2749 -37.6398
lclavicle -1.43125e-014 5.96354e-016
lhumerus -39.6469 -10.5171 80.1691
lradius 71.9839
lwrist -32.013
lhand 17.0893 23.9606
lfingers 7.12502
lthumb 41.8145 48.6125
rfemur -108.197 5.31853 25.2447
rtibia 83.5962
rfoot 3.80668 -7.98661
rtoes 9.42951
lfemur -114.108 -2.41574 -26.3039
ltibia 91.0933
lfoot 5.24775 -3.07644
ltoes -9.52189
608
root 9.34796 10.6575 18.362 23.1451 -2.5981 -1.11064
lowerback -41.2381 1.8447 3.38381
upperback -12.4323 0.845712 0.284466
thorax 5.88712 0.319216 -1.11351
lowerneck -8.33777 0.00329245 -1.98866
upperneck 50.4945 2.49454 -3.7293
head 22.7056 0.0602063 -1.2074
rclavicle -8.74653e-015 1.03368e-014
rhumerus -37.2782 30.6714 -80.6518
rradius 74.1371
rwrist 25.3366
rhand 16.4539 -12.7789
rfingers 7.12502
rthumb 41.2184 -37.6255
lclavicle -8.74653e-015 1.03368e-014
lhumerus -39.6475 -10.6284 80.1863
lradius 71.9776
lwrist -32.067
lhand 17.0181 23.9143
lfingers 7.12502
lthumb 41.7477 48.5883
rfemur -108.236 5.32039 25.2941
rtibia 83.6323
rfoot 3.80414 -7.90614
rtoes 9.43199
lfemur -113.909 -2.38676 -26.3435
ltibia 91.0825
lfoot 4.76082 -3.12254
ltoes -9.86255
609
root 9.35047 10.6534 18.365 23.1462 -2.67242 -1.09577
lowerback -41.2985 1.89982 3.41
upperback -12.4242 0.903013 0.242066
thorax 5.91668 0.344374 -1.14881
lowerneck -8.37059 0.00066018 -1.94779
upperneck 50.4906 2.46183 -3.69615
head 22.712 0.0598646 -1.20335
rclavicle -2.88238e-015 -4.17448e-015
rhumerus -37.3245 30.6408 -80.6867
rradius 74.1071
rwrist 25.454
rhand 16.3896 -12.7453
rfingers 7.12502
rthumb 41.158 -37.6112
lclavicle -2.88238e-015 -4.17448e-015
lhumerus -39.6476 -10.7448 80.2086
lradius 71.9652
lwrist -32.1307
lhand 16.9456 23.8562
lfingers 7.12502
lthumb 41.6798 48.5527
rfemur -108.267 5.32498 25.345
rtibia 83.6709
rfoot 3.80347 -7.8247
rtoes 9.45467
lfemur -113.704 -2.35535 -26.3933
ltibia 91.0706
lfoot 4.32406 -3.19279
ltoes -10.2162
610
root 9.3525 10.6489 18.3679 23.1424 -2.75082 -1.07594
lowerback -41.3478 1.94659 3.41709
upperback -12.4177 0.957583 0.205025
thorax 5.94103 0.368759 -1.1698
lowerneck -8.40758 -0.0049834 -1.91313
upperneck 50.4796 2.42438 -3.66065
head 22.7127 0.0567548 -1.19737
rclavicle 2.98177e-015 -9.93923e-016
rhumerus -37.3756 30.6128 -80.7193
rradius 74.0808
rwrist 25.5799
rhand 16.3186 -12.7099
rfingers 7.12502
rthumb 41.0914 -37.5972
lclavicle 2.98177e-015 -9.93923e-016
lhumerus -39.6408 -10.8661 80.2329
lradius 71.946
lwrist -32.1927
lhand 16.88 23.7978
lfingers 7.12502
lthumb 41.6182 48.5145
rfemur -108.297 5.33089 25.3925
rtibia 83.7123
rfoot 3.8028 -7.74354
rtoes 9.4987
lfemur -113.505 -2.32511 -26.4541
ltibia 91.0597
lfoot 3.93539 -3.28048
ltoes -10.5306
